<svg width="800" height="600" viewBox="0 0 800 600" fill="none" xmlns="http://www.w3.org/2000/svg">
<g id="web-developer 1" clip-path="url(#clip0)">
<path id="background" d="M745.2 339.56C745.2 154.79 595.41 5 410.63 5C225.86 5 76.07 154.79 76.07 339.56C76.07 444.96 124.83 538.96 201 600.28H620.27C696.44 538.96 745.2 444.96 745.2 339.56Z" fill="url(#paint0_linear)"/>
<g id="human">
<path id="Vector" d="M566.26 371.79H554.68V600.03H566.26V371.79Z" fill="#1289CC"/>
<path id="Vector_2" d="M560.57 371.79H548.99V600.03H560.57V371.79Z" fill="black"/>
<path id="Vector_3" d="M603.58 371.79H592.05V600.03H603.58V371.79Z" fill="#1289CC"/>
<path id="Vector_4" d="M597.89 371.79H586.36V600.03H597.89V371.79Z" fill="black"/>
<path id="Vector_5" d="M321.11 371.79H309.53V600.03H321.11V371.79Z" fill="#125CAE"/>
<path id="Vector_6" d="M315.43 371.79H303.85V600.03H315.43V371.79Z" fill="black"/>
<path id="Vector_7" d="M358.43 371.79H346.9V600.03H358.43V371.79Z" fill="#1289CC"/>
<path id="Vector_8" d="M352.75 371.79H341.22V600.03H352.75V371.79Z" fill="black"/>
<path id="Vector_9" d="M625.94 362.32H261.49V384.93H625.94V362.32Z" fill="black"/>
<path id="Vector_10" fill-rule="evenodd" clip-rule="evenodd" d="M424.23 280.97L536.39 273.07L538.18 277L523.47 357.25H518.3L407.44 364.05L424.23 280.97Z" fill="url(#paint1_linear)"/>
<path id="Vector_11" fill-rule="evenodd" clip-rule="evenodd" d="M420.31 273.07H535.99L519.2 356.2H403.51L420.31 273.07Z" fill="black"/>
<path id="Vector_12" d="M519.54 356.05H487.79V362.31H519.54V356.05Z" fill="url(#paint2_linear)"/>
<path id="Vector_13" d="M487.79 356.05H380.85V362.31H487.79V356.05Z" fill="#431CA3"/>
<path id="Vector_14" fill-rule="evenodd" clip-rule="evenodd" d="M424.23 277.89L409.37 351.33H515.22L530.08 277.89H424.23Z" fill="#3F2759"/>
<path id="Vector_15" fill-rule="evenodd" clip-rule="evenodd" d="M443.71 362.32C447.29 362.76 454.84 361.62 460.21 358.15C465.53 354.67 469.75 351.37 469.75 351.37C469.75 351.37 481.34 352.88 482.08 350.23C482.4 346.69 467.06 342.5 464.93 342.25C462.74 342 444.76 344.53 442.92 346.37C441.08 348.2 443.71 362.32 443.71 362.32Z" fill="white"/>
<path id="Vector_16" fill-rule="evenodd" clip-rule="evenodd" d="M383.78 352.23C387.36 352.68 394.91 351.54 400.23 348.06C405.55 344.58 410.62 339.51 410.62 339.51C410.62 339.51 422.2 340.6 421.95 339.51C421.65 338.47 407.14 332.4 404.95 332.16C402.81 331.91 384.78 334.45 382.94 336.29C381.1 338.11 383.78 352.23 383.78 352.23Z" fill="white"/>
<path id="Vector_17" fill-rule="evenodd" clip-rule="evenodd" d="M404.8 338.22C405.94 339.66 413.2 345.08 411.81 347.16C410.42 349.3 407.09 350.19 403.46 347.56C399.83 344.93 397.55 341.84 398.54 340.8C399.54 339.76 404.8 338.22 404.8 338.22Z" fill="white"/>
<path id="Vector_18" fill-rule="evenodd" clip-rule="evenodd" d="M250.31 266.61C239.28 271.08 241.91 292.35 246.93 307.61C251.9 322.87 303.43 358.89 318.69 362.87C333.95 366.8 393.13 348.31 393.13 348.31C397.15 340.11 393.68 331.41 386.37 333.3C386.37 333.3 328.68 342.34 320.03 332.36C313.07 324.35 261.99 261.89 250.31 266.61Z" fill="url(#paint3_linear)"/>
<path id="Vector_19" fill-rule="evenodd" clip-rule="evenodd" d="M297.02 238.98C278.98 275.3 241.91 263.18 233.17 228.45C224.42 193.76 222.14 163.8 252.55 158.53C285.59 152.81 315.11 202.65 297.02 238.98Z" fill="url(#paint4_linear)"/>
<path id="Vector_20" fill-rule="evenodd" clip-rule="evenodd" d="M240.57 239.78C244 250.56 242.95 279.48 242.95 279.48C242.95 279.48 291.75 293.69 290.26 287.13C284.3 260.54 281.27 237.29 275.8 232.42C271.28 228.44 260.15 241.81 240.57 239.78Z" fill="white"/>
<path id="Vector_21" fill-rule="evenodd" clip-rule="evenodd" d="M340 567.15C340 567.15 350.48 579.82 364.05 585.49C377.62 591.16 383.73 593.59 381.54 597.07C379.35 600.55 361.96 598.91 348.84 599.36C335.77 599.81 326.93 600.8 326.48 596.63C326.03 592.51 328.12 569.6 328.12 569.6L340 567.15Z" fill="black"/>
<path id="Vector_22" fill-rule="evenodd" clip-rule="evenodd" d="M320.92 468.56C321.42 482.77 326.24 589.34 326.24 589.34C329.61 593.23 351.89 585.24 353.45 579.83C353.45 579.83 363.01 461.2 359.28 460.65C355.61 460.16 320.92 468.56 320.92 468.56Z" fill="url(#paint5_linear)"/>
<path id="Vector_23" fill-rule="evenodd" clip-rule="evenodd" d="M454.5 567.65C454.5 567.65 464.99 580.32 478.5 586.04C492.07 591.71 498.18 594.09 495.99 597.62C493.8 601.1 476.41 599.41 463.34 599.86C450.22 600.31 441.38 601.3 440.93 597.18C440.48 593.01 442.57 570.1 442.57 570.1L454.5 567.65Z" fill="black"/>
<path id="Vector_24" fill-rule="evenodd" clip-rule="evenodd" d="M248.62 425.67C247.03 436.75 230.18 454.1 250.71 471.44C271.23 488.78 403.37 474.12 405.06 476.46C406.75 478.75 439.45 591.18 439.45 591.18C439.45 591.18 467.74 590.29 466.26 578.71C455.34 548.55 457.14 452.26 435.03 441.72C412.95 431.19 248.62 425.67 248.62 425.67Z" fill="url(#paint6_linear)"/>
<path id="Vector_25" fill-rule="evenodd" clip-rule="evenodd" d="M302.78 269.49C283.85 264.47 227.27 260.42 219.69 276.6C202.09 314.17 216.1 458.53 240.6 460.91C256.35 462.45 334.53 460.06 337.16 431.69C340.6 394.37 306.06 340.4 302.78 269.49Z" fill="url(#paint7_linear)"/>
<path id="Vector_26" d="M237.36 387.29H218.18V482.5H237.36V387.29Z" fill="white"/>
<path id="Vector_27" d="M233.28 386.52H214.1V481.73H233.28V386.52Z" fill="black"/>
<path id="Vector_28" fill-rule="evenodd" clip-rule="evenodd" d="M302.78 269.49C291.75 273.96 294.33 295.28 299.35 310.54C304.37 325.75 355.9 361.77 371.16 365.75C386.42 369.68 447.44 361.98 447.44 361.98C451.42 353.78 447.99 345.08 440.63 346.97C440.63 346.97 381.1 345.23 372.45 335.24C365.55 327.23 314.41 264.77 302.78 269.49Z" fill="url(#paint8_linear)"/>
<path id="Vector_29" fill-rule="evenodd" clip-rule="evenodd" d="M283.6 193.16C280.07 188.69 289.71 207.37 286.78 215.22C286.83 206.82 266.46 196.68 274.31 219.49C275.26 222.27 276.44 234.16 276.44 234.16C276.24 239.06 251.18 253.86 242.91 248.16C235.41 243.79 223.53 226.2 215.93 206.47C208.28 186.74 221.69 177.1 221.69 177.1C221.69 177.1 219.85 172.08 225.91 162.64C230.63 155.19 301 140.43 297.22 172.92C296.42 179.64 289.37 185.46 283.6 193.16Z" fill="black"/>
<path id="Vector_30" fill-rule="evenodd" clip-rule="evenodd" d="M200.88 309.7H273.87C279.15 309.7 283.51 315.56 283.51 322.72V377.18C283.51 384.34 279.15 390.2 273.87 390.2H200.88C195.56 390.2 191.21 384.34 191.21 377.18V322.72C191.21 315.56 195.56 309.7 200.88 309.7Z" fill="white"/>
<path id="Vector_31" fill-rule="evenodd" clip-rule="evenodd" d="M193.71 309.86H266.7C271.98 309.86 276.34 315.72 276.34 322.88V377.34C276.34 384.5 271.98 390.36 266.7 390.36H193.71C188.39 390.36 184.04 384.5 184.04 377.34V322.88C184.03 315.72 188.39 309.86 193.71 309.86Z" fill="black"/>
<path id="Vector_32" d="M300.72 486.65H283.53V583.7H300.72V486.65Z" fill="black"/>
<path id="Vector_33" d="M355.68 581.61H230.8V588.42H355.68V581.61Z" fill="black"/>
<path id="Vector_34" fill-rule="evenodd" clip-rule="evenodd" d="M353.05 599.25C358.12 599.25 362.19 595.17 362.19 590.16C362.19 585.09 358.12 581.02 353.05 581.02C348.03 581.02 343.96 585.09 343.96 590.16C343.95 595.18 348.03 599.25 353.05 599.25Z" fill="black"/>
<path id="Vector_35" fill-rule="evenodd" clip-rule="evenodd" d="M291.02 599.05C296.09 599.05 300.16 594.97 300.16 589.96C300.16 584.89 296.08 580.82 291.02 580.82C286 580.82 281.93 584.89 281.93 589.96C281.92 594.97 286 599.05 291.02 599.05Z" fill="black"/>
<path id="Vector_36" fill-rule="evenodd" clip-rule="evenodd" d="M231.2 599.25C236.22 599.25 240.34 595.17 240.34 590.16C240.34 585.09 236.22 581.02 231.2 581.02C226.18 581.02 222.06 585.09 222.06 590.16C222.06 595.18 226.18 599.25 231.2 599.25Z" fill="black"/>
<path id="Vector_37" fill-rule="evenodd" clip-rule="evenodd" d="M211.5 471.44H372.7C378.81 471.44 383.78 476.41 383.78 482.47C383.78 488.58 378.81 493.55 372.7 493.55H211.5C205.44 493.55 200.47 488.58 200.47 482.47C200.47 476.41 205.44 471.44 211.5 471.44Z" fill="black"/>
<path id="Vector_38" fill-rule="evenodd" clip-rule="evenodd" d="M238.99 266.69C239.24 263.51 241.49 254.56 241.49 254.56C241.49 254.56 278.06 252.07 286.76 256.15C288.12 256.79 296.57 269.24 296.57 269.24C273.51 265.06 253.78 264.86 238.99 266.69Z" fill="#BCD8FA"/>
<path id="Vector_39" fill-rule="evenodd" clip-rule="evenodd" d="M424.23 277.89H530.08L529.41 281.18L423.53 281.38L424.23 277.89Z" fill="#1E8191"/>
<path id="Vector_40" fill-rule="evenodd" clip-rule="evenodd" d="M514.68 289.33C514.68 289.83 514.28 290.23 513.78 290.23H430.09C429.59 290.23 429.19 289.83 429.19 289.33C429.19 288.83 429.59 288.43 430.09 288.43H513.78C514.28 288.43 514.68 288.83 514.68 289.33Z" fill="#1E8191"/>
<path id="Vector_41" fill-rule="evenodd" clip-rule="evenodd" d="M498.24 294.44C498.24 294.94 497.91 295.34 497.5 295.34H428.89C428.48 295.34 428.15 294.94 428.15 294.44C428.15 293.94 428.48 293.54 428.89 293.54H497.5C497.91 293.54 498.24 293.95 498.24 294.44Z" fill="#1E8191"/>
<path id="Vector_42" fill-rule="evenodd" clip-rule="evenodd" d="M497.22 300.76C497.22 301.26 496.89 301.66 496.48 301.66H427.87C427.46 301.66 427.13 301.26 427.13 300.76C427.13 300.26 427.46 299.86 427.87 299.86H496.48C496.89 299.86 497.22 300.26 497.22 300.76Z" fill="#1E8191"/>
<path id="Vector_43" fill-rule="evenodd" clip-rule="evenodd" d="M511.27 306.29C511.27 306.79 510.87 307.19 510.37 307.19H426.59C426.09 307.19 425.69 306.79 425.69 306.29C425.69 305.79 426.09 305.39 426.59 305.39H510.37C510.87 305.39 511.27 305.8 511.27 306.29Z" fill="#1E8191"/>
<path id="Vector_44" fill-rule="evenodd" clip-rule="evenodd" d="M508.17 319.46C508.17 319.96 507.77 320.36 507.27 320.36H423.49C422.99 320.36 422.59 319.96 422.59 319.46C422.59 318.96 422.99 318.56 423.49 318.56H507.27C507.76 318.56 508.17 318.96 508.17 319.46Z" fill="#1E8191"/>
<path id="Vector_45" fill-rule="evenodd" clip-rule="evenodd" d="M477.84 312.54C477.84 313.04 477.59 313.44 477.28 313.44H425.13C424.82 313.44 424.57 313.04 424.57 312.54C424.57 312.04 424.82 311.64 425.13 311.64H477.28C477.59 311.64 477.84 312.04 477.84 312.54Z" fill="#1E8191"/>
<path id="Vector_46" fill-rule="evenodd" clip-rule="evenodd" d="M460.41 325.2C460.41 325.7 460.23 326.1 460.01 326.1H422.36C422.14 326.1 421.96 325.7 421.96 325.2C421.96 324.7 422.14 324.3 422.36 324.3H460C460.23 324.3 460.41 324.7 460.41 325.2Z" fill="#1E8191"/>
<path id="Vector_47" fill-rule="evenodd" clip-rule="evenodd" d="M489.15 332.14C489.15 332.64 488.83 333.04 488.43 333.04H421.03C420.63 333.04 420.31 332.64 420.31 332.14C420.31 331.64 420.64 331.24 421.03 331.24H488.43C488.82 331.24 489.15 331.64 489.15 332.14Z" fill="#1E8191"/>
</g>
<g id="stars">
<path id="Vector_48" d="M388.94 108.43C388.94 109.16 388.35 109.75 387.62 109.75C386.89 109.75 386.3 109.16 386.3 108.43C386.3 107.7 386.89 107.11 387.62 107.11C388.35 107.11 388.94 107.7 388.94 108.43Z" fill="white"/>
<path id="Vector_49" d="M483.64 190.28C483.64 191.01 483.05 191.6 482.32 191.6C481.59 191.6 480.99 191.01 480.99 190.28C480.99 189.55 481.58 188.96 482.32 188.96C483.06 188.96 483.64 189.54 483.64 190.28Z" fill="white"/>
<path id="Vector_50" d="M345.28 119.07C345.28 119.8 344.69 120.39 343.96 120.39C343.23 120.39 342.64 119.8 342.64 119.07C342.64 118.34 343.23 117.74 343.96 117.74C344.69 117.75 345.28 118.34 345.28 119.07Z" fill="white"/>
<path id="Vector_51" d="M238.68 117.75C238.68 118.48 238.09 119.07 237.36 119.07C236.63 119.07 236.04 118.48 236.04 117.75C236.04 117.02 236.63 116.43 237.36 116.43C238.09 116.42 238.68 117.02 238.68 117.75Z" fill="white"/>
<path id="Vector_52" d="M614.04 275.26C614.04 275.99 613.45 276.58 612.72 276.58C611.99 276.58 611.39 275.99 611.39 275.26C611.39 274.53 611.98 273.94 612.72 273.94C613.46 273.94 614.04 274.53 614.04 275.26Z" fill="white"/>
<path id="Vector_53" d="M618.39 187.01L619.8 189.87L622.95 190.32L620.67 192.55L621.21 195.69L618.39 194.21L615.57 195.69L616.1 192.55L613.82 190.32L616.98 189.87L618.39 187.01Z" fill="white"/>
<path id="Vector_54" d="M291.7 70.98L293.46 74.55L297.4 75.12L294.55 77.9L295.22 81.83L291.7 79.97L288.17 81.83L288.84 77.9L285.99 75.12L289.93 74.55L291.7 70.98Z" fill="white"/>
<path id="Vector_55" d="M686.65 245.8L688.42 249.37L692.36 249.94L689.51 252.72L690.18 256.65L686.65 254.79L683.13 256.65L683.8 252.72L680.95 249.94L684.89 249.37L686.65 245.8Z" fill="white"/>
<path id="Vector_56" d="M166.58 239.86C169.159 239.86 171.25 237.769 171.25 235.19C171.25 232.611 169.159 230.52 166.58 230.52C164.001 230.52 161.91 232.611 161.91 235.19C161.91 237.769 164.001 239.86 166.58 239.86Z" fill="white"/>
</g>
<path id="moon" d="M520.94 136.02C539.04 154.2 568.44 154.28 586.63 136.19C604.81 118.1 604.89 88.69 586.8 70.51C568.71 52.33 539.3 52.25 521.12 70.34C502.93 88.43 502.85 117.84 520.94 136.02Z" fill="white"/>
<path id="light" d="M83.42 354.06L409.37 351.33L416.59 351.6L515.22 351.33L530.08 277.89L133.49 73.52" fill="url(#paint9_linear)"/>
<path id="cloud" opacity="0.2" d="M427.57 42.1C423.84 42.1 420.35 43.12 417.37 44.9C416.66 34.5 408 26.29 397.43 26.29C394.85 26.29 392.39 26.78 390.13 27.67C387.25 18.03 378.32 11 367.74 11C354.84 11 344.37 21.46 344.37 34.37C344.37 34.7 344.38 35.03 344.4 35.35C344.39 35.35 344.38 35.35 344.37 35.35C331.47 35.35 321 45.81 321 58.72C321 71.62 331.46 82.09 344.37 82.09C345.18 82.09 345.97 82.05 346.76 81.97H425.39C426.11 82.05 426.83 82.09 427.57 82.09C438.61 82.09 447.56 73.14 447.56 62.1C447.56 51.05 438.61 42.1 427.57 42.1Z" fill="url(#paint10_linear)"/>
</g>
<defs>
<linearGradient id="paint0_linear" x1="410.635" y1="-1.3356" x2="410.635" y2="600.908" gradientUnits="userSpaceOnUse">
<stop stop-color="#7700BB"/>
<stop offset="1"/>
</linearGradient>
<linearGradient id="paint1_linear" x1="407.438" y1="318.561" x2="538.178" y2="318.561" gradientUnits="userSpaceOnUse">
<stop stop-color="#A1BAFF"/>
<stop offset="0.4332" stop-color="white"/>
</linearGradient>
<linearGradient id="paint2_linear" x1="487.791" y1="359.186" x2="519.543" y2="359.186" gradientUnits="userSpaceOnUse">
<stop stop-color="#A1BAFF"/>
<stop offset="0.4332" stop-color="white"/>
</linearGradient>
<linearGradient id="paint3_linear" x1="242.597" y1="314.881" x2="394.824" y2="314.881" gradientUnits="userSpaceOnUse">
<stop stop-color="#311341"/>
<stop offset="0.2299" stop-color="#3113C2"/>
<stop offset="0.3479" stop-color="#2F18C5"/>
<stop offset="0.4931" stop-color="#2927CC"/>
<stop offset="0.6524" stop-color="#1F40D8"/>
<stop offset="0.8219" stop-color="#1263E9"/>
<stop offset="0.9978" stop-color="#008FFF"/>
<stop offset="1" stop-color="#0090FF"/>
</linearGradient>
<linearGradient id="paint4_linear" x1="260.194" y1="196.16" x2="287.175" y2="267.796" gradientUnits="userSpaceOnUse">
<stop stop-color="#A1BAFF"/>
<stop offset="0.4332" stop-color="white"/>
</linearGradient>
<linearGradient id="paint5_linear" x1="340.829" y1="474.88" x2="345.481" y2="581.868" gradientUnits="userSpaceOnUse">
<stop offset="0.0414" stop-color="#100022"/>
<stop offset="1" stop-color="#090E96"/>
</linearGradient>
<linearGradient id="paint6_linear" x1="334.145" y1="446.239" x2="458.197" y2="587.658" gradientUnits="userSpaceOnUse">
<stop offset="0.0414" stop-color="#10003B"/>
<stop offset="1" stop-color="#090E96"/>
</linearGradient>
<linearGradient id="paint7_linear" x1="211.814" y1="363.16" x2="337.41" y2="363.16" gradientUnits="userSpaceOnUse">
<stop stop-color="#7633FF"/>
<stop offset="0.1585" stop-color="#7137FF"/>
<stop offset="0.3535" stop-color="#6243FF"/>
<stop offset="0.5676" stop-color="#4957FF"/>
<stop offset="0.7937" stop-color="#2672FF"/>
<stop offset="1" stop-color="#0090FF"/>
</linearGradient>
<linearGradient id="paint8_linear" x1="299.975" y1="304.053" x2="445.298" y2="355.219" gradientUnits="userSpaceOnUse">
<stop stop-color="#7633FF"/>
<stop offset="0.0967" stop-color="#7137FF"/>
<stop offset="0.2157" stop-color="#6243FF"/>
<stop offset="0.3464" stop-color="#4957FF"/>
<stop offset="0.4844" stop-color="#2672FF"/>
<stop offset="0.6103" stop-color="#0090FF"/>
</linearGradient>
<linearGradient id="paint9_linear" x1="112.784" y1="214.635" x2="627.311" y2="314.649" gradientUnits="userSpaceOnUse">
<stop offset="0.00411293" stop-color="#7633FF" stop-opacity="0"/>
<stop offset="0.0919" stop-color="#7051FF" stop-opacity="0.0882"/>
<stop offset="0.2626" stop-color="#6685FF" stop-opacity="0.2596"/>
<stop offset="0.4302" stop-color="#5EB1FF" stop-opacity="0.4279"/>
<stop offset="0.591" stop-color="#57D3FF" stop-opacity="0.5893"/>
<stop offset="0.7432" stop-color="#53EBFF" stop-opacity="0.7421"/>
<stop offset="0.8833" stop-color="#50FAFF" stop-opacity="0.8829"/>
<stop offset="1" stop-color="#4FFFFF"/>
</linearGradient>
<linearGradient id="paint10_linear" x1="321.004" y1="46.547" x2="447.563" y2="46.547" gradientUnits="userSpaceOnUse">
<stop stop-color="#A1BAFF"/>
<stop offset="0.0888" stop-color="#ACC2FF"/>
<stop offset="0.4988" stop-color="#D9E3FF"/>
<stop offset="0.816" stop-color="#F5F7FF"/>
<stop offset="1" stop-color="white"/>
</linearGradient>
<clipPath id="clip0">
<rect width="800" height="600" fill="white"/>
</clipPath>
</defs>
</svg>
